<?xml version="1.0" standalone="no"?>
<!DOCTYPE svg PUBLIC "-//W3C//DTD SVG 20010904//EN"
 "http://www.w3.org/TR/2001/REC-SVG-20010904/DTD/svg10.dtd">
<svg version="1.0" xmlns="http://www.w3.org/2000/svg"
 width="100%" height="100%" viewBox="0 0 1350 1050"
 preserveAspectRatio="xMidYMid meet">
<metadata>
Created by potrace 1.10, written by Peter Selinger 2001-2011
</metadata>
<defs>
  <linearGradient id="gradient" x1="0%" y1="0%" x2="100%" y2="0%">
    <stop offset="0%" style="stop-color:rgb(99,179,237);stop-opacity:1" />
    <stop offset="100%" style="stop-color:rgb(43,108,176);stop-opacity:1" />
  </linearGradient>
</defs>
<g transform="translate(0.000000,1482.000000) scale(0.100000,-0.100000)"
fill="#000000" stroke="none">
<path d="M486 14364 c-7 -18 3 -38 54 -114 21 -30 69 -104 108 -165 39 -60 80
-123 92 -140 12 -16 45 -68 75 -115 30 -47 63 -98 75 -115 12 -16 45 -68 75
-115 30 -47 63 -98 75 -115 12 -16 73 -109 135 -205 62 -96 132 -202 154 -235
23 -33 66 -98 97 -145 31 -47 63 -91 72 -97 12 -10 362 -13 1670 -13 1167 0
1659 -3 1674 -11 24 -13 19 -42 -16 -97 -13 -20 -48 -80 -78 -132 -31 -52 -87
-149 -125 -215 -39 -66 -89 -154 -112 -195 -23 -41 -65 -113 -92 -160 -28 -47
-63 -107 -79 -135 -40 -72 -89 -156 -153 -267 -32 -54 -57 -100 -57 -104 0 -3
-13 -24 -28 -47 -16 -23 -82 -136 -147 -252 -65 -115 -126 -221 -135 -235 -9
-14 -28 -45 -42 -70 -54 -97 -165 -290 -221 -385 -33 -55 -74 -127 -92 -160
-17 -33 -58 -103 -90 -155 -64 -107 -70 -138 -34 -191 13 -19 80 -122 149
-228 69 -105 186 -285 261 -399 211 -321 388 -591 430 -657 54 -85 79 -115 94
-115 18 0 40 30 95 130 25 45 81 143 126 218 44 76 111 191 148 257 38 66 94
165 127 220 33 55 63 109 68 121 5 11 42 76 83 145 41 68 89 151 108 184 56
101 230 402 401 695 36 63 112 194 166 290 55 96 207 359 337 584 130 224 236
410 236 413 0 3 24 44 53 91 30 48 70 116 89 152 20 36 51 91 69 122 28 48 95
163 251 433 10 16 29 51 43 77 13 26 35 54 47 62 20 14 280 16 2663 16 2098 0
2645 3 2657 13 14 10 171 242 323 477 27 41 109 167 183 280 74 113 156 239
183 280 26 41 58 89 69 105 101 143 261 399 258 413 -3 16 -366 17 -6285 20
-5705 2 -6281 1 -6287 -14z" fill="url(#gradient)"/>
<path d="M7763 11170 c-12 -5 -27 -19 -34 -32 -13 -25 -83 -132 -297 -458 -74
-113 -158 -241 -187 -285 -29 -44 -119 -181 -201 -305 -81 -124 -148 -234
-148 -245 -1 -20 7 -20 1147 -25 1006 -4 1149 -7 1157 -20 13 -20 13 -21 -8
-51 -54 -83 -83 -125 -150 -229 -170 -261 -231 -354 -347 -530 -67 -102 -158
-241 -203 -310 -154 -239 -152 -237 -223 -244 -30 -3 -529 -4 -1109 -3 -655 2
-1063 -1 -1075 -7 -11 -5 -27 -18 -35 -30 -21 -29 -110 -178 -110 -184 0 -3
-31 -58 -69 -121 -37 -64 -89 -152 -114 -196 -48 -84 -65 -112 -154 -265 -31
-52 -69 -120 -86 -150 -16 -30 -53 -95 -81 -145 -127 -219 -156 -274 -156
-295 0 -12 17 -47 39 -78 21 -32 67 -102 103 -157 36 -55 108 -165 160 -245
52 -80 129 -197 171 -261 42 -65 151 -231 243 -370 178 -271 215 -328 429
-654 296 -454 330 -505 341 -505 17 0 48 38 132 170 45 69 142 217 216 330
260 397 533 814 692 1058 53 81 104 159 114 173 51 74 252 380 266 405 6 11
41 64 78 118 36 54 66 99 66 101 0 3 140 215 228 344 31 46 66 100 78 120 11
20 86 135 165 256 80 121 176 267 214 325 37 58 89 136 114 173 25 38 55 83
66 101 11 18 117 180 235 360 118 180 265 402 325 495 136 208 411 627 610
930 83 126 157 240 165 254 8 14 42 65 74 113 33 49 106 161 164 249 57 88
126 193 153 234 39 58 47 76 38 87 -10 12 -262 14 -1593 13 -886 0 -1591 -4
-1603 -9z" fill="url(#gradient)"/>  
</g>
</svg>
